# vtk DataFile Version 2.0
temp_boundary, Created by Gmsh 4.15.2 
ASCII
DATASET UNSTRUCTURED_GRID
POINTS 253 double
-0.1008103489875793 -1.413366198539734 3.003701686859131
-0.1008103489875793 -1.228661775588989 3.003701686859131
-0.1008103489875793 1.292078137397766 -2.700687408447266
-0.1008103489875793 1.107373833656311 -2.781528472900391
0.1008103489875793 -1.413366198539734 3.003701686859131
0.1008103489875793 1.107373833656311 -2.781528472900391
0.1008103489875793 -1.228661775588989 3.003701686859131
0.1008103489875793 1.292078137397766 -2.700687408447266
0.1008103489875793 1.413366198539734 -2.977803707122803
0.1008103489875793 1.228661894798279 -3.058644771575928
-0.1008103489875793 1.228661894798279 -3.058644771575928
-0.1008103489875793 1.413366198539734 -2.977803707122803
1.718888640403748 1.107373833656311 -2.781528472900391
1.179529190063477 1.107373833656311 -2.781528472900391
1.179529190063477 1.228661894798279 -3.058644771575928
1.718888640403748 1.228661894798279 -3.058644771575928
-1.836266875267029 1.413366198539734 -2.977803707122803
-1.257781386375427 1.413366198539734 -2.977803707122803
-1.257781386375427 1.228661894798279 -3.058644771575928
-1.836266875267029 1.228661894798279 -3.058644771575928
1.718888640403748 1.292078137397766 -2.700687408447266
1.718888640403748 1.413366198539734 -2.977803707122803
1.179529190063477 1.292078137397766 -2.700687408447266
1.179529190063477 1.413366198539734 -2.977803707122803
-1.836266875267029 1.107373833656311 -2.781528472900391
-1.836266875267029 1.292078137397766 -2.700687408447266
-1.257781386375427 1.107373833656311 -2.781528472900391
-1.257781386375427 1.292078137397766 -2.700687408447266
0.6401697993278503 1.228661894798279 -3.058644771575928
0.6401697993278503 1.413366198539734 -2.977803707122803
1.179529190063477 2.164375066757202 -4.693692207336426
1.179529190063477 1.979670763015747 -4.774533271789551
0.6401697993278503 1.292078137397766 -2.700687408447266
0.6401697993278503 1.107373833656311 -2.781528472900391
0.6401697993278503 1.979670763015747 -4.774533271789551
0.6401697993278503 2.164375066757202 -4.693692207336426
-0.6792958378791809 1.107373833656311 -2.781528472900391
-0.6792958974838257 1.292078137397766 -2.700687408447266
-1.257781386375427 -1.215949535369873 3.003701448440552
-1.257781386375427 -1.400653958320618 3.003701448440552
-0.6792958974838257 1.413366198539734 -2.977803707122803
-0.6792958378791809 1.228661894798279 -3.058644771575928
-0.6792958378791809 -1.400653958320618 3.003701448440552
-0.6792958974838257 -1.215949535369873 3.003701448440552
-0.1008103489875793 -1.321013987064362 3.003701686859131
-0.1008103489875793 0.03170818090438843 0.1515071392059326
-0.1008103489875793 -0.06064403057098389 0.1515071392059326
0 -1.413366198539734 3.003701686859131
0 -1.321013987064362 3.003701686859131
-0.1008103489875793 -0.1529961824417114 0.1110866069793701
-0.1008103489875793 1.199725985527039 -2.741107940673828
0 -0.1529961824417114 0.1110866069793701
0 0.03170818090438843 0.1515071392059326
0 1.292078137397766 -2.700687408447266
0 -1.228661775588989 3.003701686859131
0.1008103489875793 -1.321013987064362 3.003701686859131
0.1008103489875793 0.03170818090438843 0.1515071392059326
-0.3900530934333801 1.107373833656311 -2.781528472900391
-0.3900530934333801 1.199725985527039 -2.741107940673828
0.1008103489875793 1.35272216796875 -2.839245557785034
0 1.35272216796875 -2.839245557785034
-0.1008103489875793 1.35272216796875 -2.839245557785034
0 1.413366198539734 -2.977803707122803
-0.3900531232357025 1.292078137397766 -2.700687408447266
-0.3900531232357025 1.35272216796875 -2.839245557785034
-0.6792958676815033 1.199725985527039 -2.741107940673828
0.1008103489875793 -0.1529961824417114 0.1110866069793701
0 1.107373833656311 -2.781528472900391
-0.1008103489875793 1.168017864227295 -2.920086622238159
0 1.168017864227295 -2.920086622238159
-0.3900530934333801 1.228661894798279 -3.058644771575928
-0.3900530934333801 1.168017864227295 -2.920086622238159
-0.6792958378791809 1.168017864227295 -2.920086622238159
0.1008103489875793 -0.06064397096633911 0.1110866069793701
0.1008103489875793 1.199725985527039 -2.741107940673828
0.3704900741577148 1.292078137397766 -2.700687408447266
0.3704900741577148 1.199725985527039 -2.741107940673828
0.1008103489875793 1.168017864227295 -2.920086622238159
0 1.228661894798279 -3.058644771575928
0.3704900741577148 1.107373833656311 -2.781528472900391
0.3704900741577148 1.168017864227295 -2.920086622238159
0.6401697993278503 1.199725985527039 -2.741107940673828
0.3704900741577148 1.413366198539734 -2.977803707122803
0.3704900741577148 1.35272216796875 -2.839245557785034
0.6401697993278503 1.35272216796875 -2.839245557785034
0.1008103489875793 1.321014046669006 -3.018224239349365
0 1.321014046669006 -3.018224239349365
0.3704900741577148 1.228661894798279 -3.058644771575928
0.3704900741577148 1.321014046669006 -3.018224239349365
-0.1008103489875793 1.321014046669006 -3.018224239349365
0.6401697993278503 1.321014046669006 -3.018224239349365
0.6401697993278503 1.168017864227295 -2.920086622238159
-0.3900531232357025 1.413366198539734 -2.977803707122803
-0.3900531232357025 1.321014046669006 -3.018224239349365
-0.6792958676815033 1.321014046669006 -3.018224239349365
-0.6792958974838257 1.35272216796875 -2.839245557785034
1.449208915233612 1.107373833656311 -2.781528472900391
1.179529190063477 1.168017864227295 -2.920086622238159
1.449208915233612 1.168017864227295 -2.920086622238159
1.718888640403748 1.199725985527039 -2.741107940673828
1.449208915233612 1.199725985527039 -2.741107940673828
1.718888640403748 1.168017864227295 -2.920086622238159
1.449208915233612 1.228661894798279 -3.058644771575928
1.718888640403748 1.260370016098022 -2.879666090011597
0.9098494946956635 1.168017864227295 -2.920086622238159
0.9098494946956635 1.228661894798279 -3.058644771575928
1.449208915233612 1.292078137397766 -2.700687408447266
1.179529190063477 1.199725985527039 -2.741107940673828
0.9098494946956635 1.199725985527039 -2.741107940673828
0.9098494946956635 1.107373833656311 -2.781528472900391
1.179529190063477 1.321014046669006 -3.018224239349365
1.449208915233612 1.321014046669006 -3.018224239349365
1.179529190063477 1.788870632648468 -3.835747957229614
1.179529190063477 1.69651848077774 -3.876168489456177
1.179529190063477 1.604166328907013 -3.916589021682739
0.9098494946956635 1.604166328907013 -3.916589021682739
1.179529190063477 2.072022914886475 -4.734112739562988
1.718888640403748 1.35272216796875 -2.839245557785034
1.718888640403748 1.321014046669006 -3.018224239349365
1.449208915233612 1.413366198539734 -2.977803707122803
-1.547024130821228 1.413366198539734 -2.977803707122803
-1.257781386375427 1.321014046669006 -3.018224239349365
-1.547024130821228 1.321014046669006 -3.018224239349365
-1.836266875267029 1.35272216796875 -2.839245557785034
-1.547024130821228 1.35272216796875 -2.839245557785034
-1.836266875267029 1.321014046669006 -3.018224239349365
-1.547024130821228 1.228661894798279 -3.058644771575928
-1.836266875267029 1.168017864227295 -2.920086622238159
-1.836266875267029 1.260370016098022 -2.879666090011597
-1.836266875267029 1.199725985527039 -2.741107940673828
-0.9685386121273041 1.321014046669006 -3.018224239349365
-0.9685386121273041 1.228661894798279 -3.058644771575928
-1.547024130821228 1.292078137397766 -2.700687408447266
-1.257781386375427 1.35272216796875 -2.839245557785034
-0.9685386419296265 1.35272216796875 -2.839245557785034
-0.9685386419296265 1.413366198539734 -2.977803707122803
-1.257781386375427 1.168017864227295 -2.920086622238159
-1.547024130821228 1.168017864227295 -2.920086622238159
-0.9685386121273041 1.168017864227295 -2.920086622238159
-0.9685386121273041 1.107373833656311 -2.781528472900391
-1.547024130821228 1.107373833656311 -2.781528472900391
1.449208915233612 1.35272216796875 -2.839245557785034
1.179529190063477 1.35272216796875 -2.839245557785034
0.9098494946956635 1.35272216796875 -2.839245557785034
0.9098494946956635 1.292078137397766 -2.700687408447266
0.9098494946956635 1.413366198539734 -2.977803707122803
0.6401697993278503 1.788870632648468 -3.835747957229614
0.9098494946956635 1.788870632648468 -3.835747957229614
0.9098494946956635 2.164375066757202 -4.693692207336426
-1.547024130821228 1.199725985527039 -2.741107940673828
-1.257781386375427 1.199725985527039 -2.741107940673828
-1.257781386375427 0.03806430101394653 0.1515070199966431
-1.257781386375427 -0.05428785085678101 0.1110864877700806
-1.257781386375427 -0.1466400623321533 0.1110864877700806
-0.9685386121273041 -0.1466400623321533 0.1110864877700806
-1.257781386375427 -1.308301746845245 3.003701448440552
-0.9685386419296265 1.292078137397766 -2.700687408447266
-0.6792958974838257 0.03806430101394653 0.1515070199966431
-0.9685386419296265 0.03806430101394653 0.1515070199966431
-0.9685386419296265 -1.215949535369873 3.003701448440552
0.6401697993278503 1.604166328907013 -3.916589021682739
0.6401697993278503 1.69651848077774 -3.876168489456177
0.9098494946956635 1.979670763015747 -4.774533271789551
0.6401697993278503 2.072022914886475 -4.734112739562988
0.9098494946956635 2.072022914886475 -4.734112739562988
-0.6792958378791809 -0.1466400623321533 0.1110864877700806
-0.6792958676815033 -0.05428791046142578 0.1515070199966431
-0.9685386121273041 -1.400653958320618 3.003701448440552
-0.6792958676815033 -1.308301746845245 3.003701448440552
-0.9685386419296265 -1.308301746845245 3.003701448440552
-1.547024130821228 1.260370016098023 -2.879666090011597
-0.9685386270284649 1.260370014512095 -2.879666090705723
2.774302218522691e-18 -0.0240344221541392 0.04736938731532193
-0.9685386265634018 -0.01803259005195889 0.04775539201034663
-0.3900531083345417 1.26037001768395 -2.879666089317471
0.3704900741577147 1.260370016098022 -2.879666090011596
0.9098494946956635 1.69651848077774 -3.876168489456177
1.449208915233612 1.260370016098022 -2.879666090011596
0.5053299367427826 1.336868107318878 -2.9287348985672
0.5053299367427826 1.244515955448151 -2.969155430793762
0.235650211572647 1.336868107318878 -2.9287348985672
1.314369052648544 1.244515955448151 -2.969155430793762
1.314369052648544 1.336868107318878 -2.9287348985672
1.58404877781868 1.244515955448151 -2.969155430793762
-1.691645503044128 1.336868107318878 -2.9287348985672
-1.402402758598328 1.336868107318878 -2.9287348985672
-1.402402758598328 1.244515955448151 -2.969155430793762
-1.691645503044128 1.244515955448151 -2.969155430793762
-1.402402758598328 1.276224076747894 -2.790176749229431
-1.691645503044128 1.276224076747894 -2.790176749229431
1.314369052648544 1.276224076747894 -2.790176749229431
1.58404877781868 1.336868107318878 -2.9287348985672
-0.8239172324538229 1.244515954655187 -2.969155431140825
-0.8239172324538229 1.183871924084203 -2.830597281803057
-1.113160006701946 1.244515954655187 -2.969155431140825
1.58404877781868 1.276224076747894 -2.790176749229431
-1.691645503044128 1.183871924877167 -2.830597281455994
0.9098494946956635 1.260370016098022 -2.879666090011597
0.6401697993278503 1.260370016098022 -2.879666090011597
0.9098494946956635 1.321014046669006 -3.018224239349365
1.04468934237957 1.554942339658737 -3.42698609828949
0.7750096470117569 1.554942339658737 -3.42698609828949
0.7750096470117569 1.46259018778801 -3.467406630516052
1.04468934237957 1.46259018778801 -3.467406630516052
-0.5346745029091837 1.336868108111842 -2.928734898220137
-0.5346745029091837 1.276224077540858 -2.790176748882368
-0.2454317286610605 1.336868108111842 -2.928734898220137
-1.113160006701946 1.183871924084203 -2.830597281803057
-0.05040517449378967 -0.7187003103469365 1.525535537087226
0.05040517449378967 -0.7187003103469365 1.525535537087226
-0.05040517449378967 -0.6263480988715642 1.525535537087226
1.04468934237957 1.838094621896744 -4.325350880622864
0.7750096470117569 1.930446773767471 -4.284930348396301
1.04468934237957 1.930446773767471 -4.284930348396301
-0.8239172620236137 -0.616991062710916 1.525728420225449
-1.113160006469414 -0.7093432741862883 1.525728420225449
-0.8239172322212913 -0.7093432741862883 1.525728420225449
1.179529190063477 1.260370016098022 -2.879666090011597
0.235650211572647 1.276224076747894 -2.790176749229431
0.5053299367427826 1.276224076747894 -2.790176749229431
-0.2454317286610605 1.276224077540858 -2.790176748882368
-0.1008103489875793 1.260370016098022 -2.879666090011597
-0.2454317286610605 1.244515956241115 -2.969155430446699
0 1.260370016098022 -2.879666090011597
0.1008103489875793 1.260370016098022 -2.879666090011597
-0.6792958676815033 1.260370016098022 -2.879666090011597
-0.5346744731068613 1.244515956241115 -2.969155430446699
0.235650211572647 1.244515955448151 -2.969155430793762
-1.257781386375427 1.260370016098022 -2.879666090011597
-1.113160006701946 1.276224075954931 -2.790176749576494
-0.8239172622561453 1.276224075954931 -2.790176749576494
-0.05040517449378967 0.541669705751086 -1.367079542792534
-0.05040517449378967 0.6340218576218135 -1.326659010565972
-0.8239172322212913 0.5446706218021761 -1.366886540445022
-0.8239172620236137 0.6370227736729036 -1.326466008218459
-1.113160006469414 0.5446706218021761 -1.366886540445022
0.05040517449378967 0.6340218576218135 -1.326659010565972
0.05040517449378967 0.541669705751086 -1.367079542792534
1.58404877781868 1.183871924877167 -2.830597281455994
1.314369052648544 1.183871924877167 -2.830597281455994
0.5053299367427826 1.183871924877167 -2.830597281455994
0.235650211572647 1.183871924877167 -2.830597281455994
-1.402402758598328 1.183871924877167 -2.830597281455994
-1.113160006701946 1.336868106525914 -2.928734898914263
-0.8239172622561453 1.336868106525914 -2.928734898914263
-1.113160006469414 -0.616991062710916 1.525728420225449
-1.113160006469414 0.6370227736729036 -1.326466008218459
0.05040517449378967 -0.6263480988715642 1.525535537087226
0.7750096470117569 1.838094621896744 -4.325350880622864
-0.2454317286610605 1.183871925670131 -2.830597281108931
-0.5346744731068613 1.183871925670131 -2.830597281108931
0 1.199725985527039 -2.741107940673828
-0.9685386419296265 1.199725985527039 -2.741107940673828

CELLS 192 1776
6 0 1 2 44 45 46
6 1 0 4 44 47 48
6 3 0 2 49 46 50
6 4 0 3 47 49 51
6 2 1 7 45 52 53
6 6 1 4 54 48 55
6 1 6 7 54 56 52
6 36 3 2 57 50 58
6 2 7 8 53 59 60
6 11 2 8 61 60 62
6 37 2 11 63 61 64
6 37 36 2 65 58 63
6 5 4 3 66 51 67
6 5 3 10 67 68 69
6 41 10 3 70 68 71
6 36 41 3 72 71 57
6 6 4 5 55 66 73
6 7 6 5 56 73 74
6 32 7 5 75 74 76
6 9 5 10 77 69 78
6 33 5 9 79 77 80
6 33 32 5 81 76 79
6 29 8 7 82 59 83
6 32 29 7 84 83 75
6 8 9 10 85 78 86
6 28 9 8 87 85 88
6 11 8 10 62 86 89
6 29 28 8 90 88 82
6 28 33 9 91 80 87
6 40 11 10 92 89 93
6 41 40 10 94 93 70
6 40 37 11 95 64 92
6 12 13 14 96 97 98
6 12 20 13 99 100 96
6 15 12 14 101 98 102
6 20 12 15 99 101 103
6 14 13 28 97 104 105
6 20 22 13 106 107 100
6 13 22 33 107 108 109
6 13 33 28 109 91 104
6 15 14 23 102 110 111
6 30 23 14 112 110 113
6 31 14 28 114 105 115
6 31 30 14 116 113 114
6 21 20 15 117 103 118
6 21 15 23 118 111 119
6 16 17 18 120 121 122
6 16 25 17 123 124 120
6 19 16 18 125 122 126
6 19 24 16 127 128 125
6 24 25 16 129 123 128
6 18 17 41 121 130 131
6 25 27 17 132 133 124
6 17 27 40 133 134 135
6 17 40 41 135 94 130
6 19 18 26 126 136 137
6 26 18 36 136 138 139
6 18 41 36 131 72 138
6 24 19 26 127 137 140
6 20 21 22 117 141 106
6 21 23 22 119 142 141
6 22 23 32 142 143 144
6 22 32 33 144 81 108
6 23 29 32 145 84 143
6 35 29 23 146 145 147
6 30 35 23 148 147 112
6 25 24 27 129 149 132
6 24 26 27 140 150 149
6 38 27 26 151 150 152
6 39 26 36 153 139 154
6 39 38 26 155 152 153
6 27 37 40 156 95 134
6 43 37 27 157 156 158
6 38 43 27 159 158 151
6 34 28 29 160 90 161
6 34 31 28 162 115 160
6 35 34 29 163 161 146
6 30 31 35 116 164 148
6 31 34 35 162 163 164
6 42 36 37 165 65 166
6 42 39 36 167 154 165
6 43 42 37 168 166 157
6 38 39 43 155 169 159
6 39 42 43 167 168 169
10 29 8 28 175 82 88 90 178 180 179
10 14 15 23 177 102 111 110 181 183 182
10 16 18 17 170 122 121 120 184 186 185
10 19 18 16 170 126 122 125 187 186 184
10 27 25 17 170 132 124 133 188 189 185
10 22 23 21 177 142 119 141 190 182 191
10 41 18 36 171 131 138 72 192 194 193
10 21 15 20 177 118 103 117 191 183 195
10 24 16 25 170 128 123 129 196 184 189
10 19 16 24 170 125 128 127 187 184 196
10 22 33 28 13 108 91 197 107 109 104
10 33 22 28 32 108 197 91 81 144 198
10 23 28 29 176 199 90 145 200 202 201
10 28 23 14 176 199 110 105 202 200 203
10 40 11 37 174 92 64 95 204 206 205
10 36 18 26 171 138 136 139 193 194 207
10 0 1 4 172 44 48 47 208 210 209
10 31 30 35 176 116 148 164 211 213 212
10 43 42 39 173 168 167 169 214 216 215
10 28 22 13 14 197 107 104 105 217 97
10 23 32 28 22 143 198 199 142 144 197
10 8 29 7 175 82 83 59 180 178 218
10 7 29 32 175 83 84 75 218 178 219
10 32 23 28 29 143 199 198 84 145 90
10 28 23 22 14 199 142 197 105 110 217
10 24 25 27 170 129 132 149 196 189 188
10 2 37 11 174 63 64 61 220 205 206
10 28 32 29 175 198 84 90 179 219 178
10 23 22 14 177 142 217 110 182 190 181
10 10 2 11 174 221 61 89 222 220 206
10 10 8 7 9 86 59 223 78 85 224
10 2 8 10 11 60 86 221 61 62 89
10 41 40 37 174 94 95 225 226 204 205
10 8 7 9 175 59 224 85 180 218 227
10 27 17 18 170 133 121 228 188 185 186
10 26 18 27 171 136 228 150 207 194 229
10 8 2 10 7 60 221 86 59 53 223
10 7 5 10 9 74 69 223 224 77 78
10 37 41 36 171 225 72 65 230 192 193
10 28 8 9 175 88 85 87 179 180 227
10 3 2 0 172 50 46 49 231 232 208
10 0 2 1 172 46 45 44 208 232 210
10 41 10 40 174 70 93 94 226 222 204
10 3 0 4 172 49 47 51 231 208 209
10 42 36 39 173 165 154 167 216 233 215
10 43 37 42 173 157 166 168 214 234 216
10 21 20 22 177 117 106 141 191 195 190
10 37 36 42 173 65 165 166 234 233 216
10 28 14 31 176 105 114 115 202 203 211
10 23 15 21 177 111 118 119 182 183 191
10 35 23 29 176 147 145 146 212 200 201
10 23 30 14 176 112 113 110 200 213 203
10 30 23 35 176 112 147 148 213 200 212
10 30 31 14 176 116 114 113 213 211 203
10 39 36 26 173 154 139 153 215 233 235
10 2 7 1 172 53 52 45 232 236 210
10 4 5 3 172 66 67 51 209 237 231
10 40 10 11 174 93 89 92 204 222 206
10 17 25 16 170 124 123 120 185 189 184
10 15 177 12 20 183 238 101 103 195 99
10 12 177 15 14 238 183 101 98 181 102
10 177 13 12 20 239 96 238 195 100 99
10 12 13 177 14 96 239 238 98 97 181
10 177 22 13 20 190 107 239 195 106 100
10 13 22 177 14 107 190 239 97 217 181
10 28 175 33 32 179 240 91 198 219 81
10 33 175 28 9 240 179 91 80 227 87
10 175 5 33 32 241 79 240 219 76 81
10 33 5 175 9 79 241 240 80 77 227
10 175 7 5 32 218 74 241 219 75 76
10 5 7 175 9 74 218 241 77 224 227
10 18 170 26 27 186 242 136 228 188 150
10 18 26 170 19 136 242 186 126 137 187
10 24 26 170 27 140 242 196 149 150 188
10 24 170 26 19 196 242 140 127 187 137
10 171 18 17 41 194 121 243 192 131 130
10 171 17 18 27 243 121 194 229 133 228
10 40 171 17 41 244 243 135 94 192 130
10 40 17 171 27 135 243 244 134 133 229
10 37 171 40 41 230 244 95 225 192 94
10 37 40 171 27 95 244 230 156 134 229
10 39 38 173 26 155 245 215 153 152 235
10 39 173 38 43 215 245 155 169 214 159
10 37 27 173 43 156 246 234 157 158 214
10 173 38 27 26 245 151 246 235 152 150
10 173 27 38 43 246 151 245 214 158 159
10 4 6 172 1 55 247 209 48 54 210
10 4 172 6 5 209 247 55 66 237 73
10 7 172 6 1 236 247 56 52 210 54
10 7 6 172 5 56 247 236 74 73 237
10 28 34 176 31 160 248 202 115 162 211
10 28 176 34 29 202 248 160 90 201 161
10 35 176 34 31 212 248 163 164 211 162
10 35 34 176 29 163 248 212 146 161 201
10 174 10 3 41 222 68 249 226 70 71
10 174 3 10 2 249 68 222 220 50 221
10 36 174 3 41 250 249 57 72 226 71
10 36 3 174 2 57 249 250 58 50 220
10 37 174 36 41 205 250 65 225 226 72
10 37 36 174 2 65 250 205 63 58 220
10 5 172 2 3 237 232 251 67 231 50
10 2 172 5 7 232 237 251 53 236 74
10 2 10 5 3 221 69 251 50 68 67
10 5 10 2 7 69 221 251 74 223 53
10 26 171 37 36 207 230 252 139 193 65
10 37 171 26 27 230 207 252 156 229 150
10 37 173 26 36 234 235 252 65 233 139
10 26 173 37 27 235 234 252 150 246 156

CELL_TYPES 192
22
22
22
22
22
22
22
22
22
22
22
22
22
22
22
22
22
22
22
22
22
22
22
22
22
22
22
22
22
22
22
22
22
22
22
22
22
22
22
22
22
22
22
22
22
22
22
22
22
22
22
22
22
22
22
22
22
22
22
22
22
22
22
22
22
22
22
22
22
22
22
22
22
22
22
22
22
22
22
22
22
22
22
22
24
24
24
24
24
24
24
24
24
24
24
24
24
24
24
24
24
24
24
24
24
24
24
24
24
24
24
24
24
24
24
24
24
24
24
24
24
24
24
24
24
24
24
24
24
24
24
24
24
24
24
24
24
24
24
24
24
24
24
24
24
24
24
24
24
24
24
24
24
24
24
24
24
24
24
24
24
24
24
24
24
24
24
24
24
24
24
24
24
24
24
24
24
24
24
24
24
24
24
24
24
24
24
24
24
24
24
24
